<svg width="351" height="351" viewBox="0 0 351 351" fill="none" xmlns="http://www.w3.org/2000/svg">
<g clip-path="url(#clip0_1070_367)">
<path d="M654.097 -46.3157C648.87 -46.3157 643.805 -45.4539 639.063 -43.892L586.58 -170.57C591.16 -172.832 595.417 -175.794 599.242 -179.618C617.94 -198.308 617.94 -228.685 599.242 -247.374C590.19 -256.422 578.174 -261.377 565.349 -261.377C552.525 -261.377 540.508 -256.368 531.456 -247.374C527.63 -243.55 524.666 -239.241 522.403 -234.663L394.913 -287.445C396.583 -292.293 397.499 -297.463 397.499 -302.849C397.499 -329.187 375.999 -350.677 349.542 -350.677C323.085 -350.677 301.639 -329.187 301.639 -302.795C301.639 -297.302 302.609 -292.024 304.333 -287.068L177.597 -234.609C175.334 -239.187 172.37 -243.496 168.544 -247.32C149.846 -266.009 119.456 -266.009 100.758 -247.32C82.0597 -228.631 82.0597 -198.254 100.758 -179.565C104.53 -175.794 108.84 -172.778 113.42 -170.516L60.937 -43.8381C56.1952 -45.4001 51.1839 -46.2618 45.9033 -46.2618C19.4999 -46.2618 -2 -24.7718 -2 1.61947C-2 28.0107 19.4999 49.5007 45.9033 49.5007C51.0762 49.5007 56.0335 48.639 60.6676 47.1309L113.205 173.863C108.894 176.125 104.907 178.979 101.404 182.534C92.3516 191.583 87.3943 203.593 87.3943 216.412C87.3943 229.23 92.4055 241.241 101.404 250.29C110.403 259.338 122.473 264.293 135.298 264.293C148.122 264.293 160.138 259.284 169.191 250.29C172.747 246.735 175.603 242.803 177.812 238.548L304.656 291.061C303.309 295.532 302.555 300.218 302.555 305.119C302.555 331.51 324.055 353 350.458 353C376.861 353 398.361 331.51 398.361 305.119C398.361 300.11 397.553 295.262 396.152 290.738L522.242 238.548C524.451 242.749 527.307 246.735 530.863 250.29C540.185 259.607 552.471 264.293 564.756 264.293C577.042 264.293 589.274 259.607 598.65 250.29C607.702 241.241 612.66 229.23 612.66 216.412C612.66 203.593 607.648 191.583 598.65 182.534C595.093 178.979 591.106 176.071 586.849 173.863L639.386 47.1309C644.02 48.639 649.032 49.5007 654.151 49.5007C680.554 49.5007 702.054 28.0107 702.054 1.61947C702.054 -24.7718 680.554 -46.2618 654.151 -46.2618L654.097 -46.3157ZM634.052 -41.8992C618.264 -34.6281 607.163 -19.0627 606.247 -0.804237H475.147C474.662 -0.804237 474.177 -0.696519 473.746 -0.427221L423.579 29.5188L425.627 -24.7718L441.253 -85.9025L533.288 -177.895C542.34 -169.762 553.818 -165.615 565.241 -165.615C570.738 -165.615 576.288 -166.638 581.514 -168.523L633.998 -41.8992H634.052ZM611.636 -0.804237C612.498 -16.8006 622.305 -30.4809 636.099 -36.9441L651.079 -0.804237H611.636V-0.804237ZM651.079 4.58173L636.315 40.183C622.574 33.8275 612.767 20.4165 611.636 4.58173H651.025H651.079ZM376.053 72.1757L318.72 70.0213L279.708 27.9569L281.863 -29.3499L323.947 -68.3443L381.28 -66.1899L419.861 -24.6102C419.861 -24.6102 420.131 -24.2332 420.292 -24.1255L418.137 33.1813L376.053 72.1757V72.1757ZM525.205 -227.607L560.715 -212.904L533.288 -185.489C522.942 -197.284 520.248 -213.496 525.205 -227.607ZM564.649 -209.241L579.467 -173.478C565.241 -168.469 548.914 -171.216 537.06 -181.719L564.595 -209.241H564.649ZM535.174 -243.55C543.203 -251.575 553.872 -255.991 565.241 -255.991C576.611 -255.991 587.28 -251.575 595.309 -243.55C611.905 -226.961 611.905 -199.977 595.309 -183.442C592.022 -180.157 588.358 -177.572 584.424 -175.579L568.151 -214.789C567.882 -215.435 567.343 -215.974 566.696 -216.243L527.253 -232.562C529.247 -236.494 531.833 -240.264 535.174 -243.55V-243.55ZM520.194 -229.654C514.428 -213.604 517.554 -195.076 529.462 -181.665L438.128 -90.3729C437.32 -90.1036 436.619 -89.4573 436.35 -88.5417L436.242 -88.2185C436.242 -88.2185 436.08 -88.0031 436.027 -87.8415L420.562 -31.6658L384.567 -70.4448L352.075 -125.705L352.452 -255.022C370.288 -256.099 385.483 -266.979 392.757 -282.383L520.14 -229.654H520.194ZM352.613 -299.025L387.854 -284.429C381.388 -271.018 368.132 -261.485 352.506 -260.408L352.613 -299.025ZM347.117 -260.354C331.383 -261.216 317.912 -270.695 311.338 -284.16L347.225 -299.025L347.117 -260.354ZM306.973 -302.742C306.973 -326.171 326.048 -345.291 349.488 -345.291C372.928 -345.291 392.003 -326.224 392.003 -302.742C392.003 -298.056 391.195 -293.585 389.848 -289.384L350.943 -305.488C350.296 -305.758 349.542 -305.758 348.895 -305.488L309.236 -289.061C307.782 -293.37 306.919 -297.948 306.919 -302.688L306.973 -302.742ZM306.381 -282.06C313.817 -266.656 329.174 -255.884 347.117 -254.968L346.74 -124.951C346.74 -124.466 346.848 -123.981 347.117 -123.55L377.67 -71.6836L323.3 -73.7303L262.303 -90.2652L170.646 -181.88C182.393 -195.238 185.41 -213.658 179.698 -229.6L306.381 -282.06V-282.06ZM135.405 -209.457L163.048 -181.827C151.193 -171.162 134.759 -168.362 120.425 -173.371L135.405 -209.457ZM139.501 -212.958L174.741 -227.554C179.644 -213.55 177.058 -197.446 166.82 -185.651L139.501 -212.958ZM104.583 -183.335C87.987 -199.923 87.987 -226.907 104.583 -243.442C112.882 -251.737 123.766 -255.884 134.651 -255.884C145.536 -255.884 156.42 -251.737 164.718 -243.442C168.005 -240.157 170.646 -236.44 172.639 -232.455L133.196 -216.135C132.549 -215.866 132.011 -215.327 131.741 -214.681L115.468 -175.471C111.534 -177.464 107.816 -180.049 104.583 -183.335V-183.335ZM118.378 -168.416C123.658 -166.53 129.155 -165.507 134.651 -165.507C146.236 -165.507 157.713 -169.708 166.874 -178.003L259.016 -85.9025C259.339 -85.5794 259.771 -85.3101 260.202 -85.2024L317.481 -69.6908L277.552 -32.6892L222.967 -1.77371H93.591C92.2978 -19.5474 81.3053 -34.682 65.8405 -41.7915L118.324 -168.416H118.378ZM49.3519 -1.77371L63.9007 -36.8364C77.4256 -30.5348 87.071 -17.3392 88.3103 -1.77371H49.3519V-1.77371ZM88.3642 3.61226C87.6098 19.8779 77.6951 33.7737 63.6312 40.2907L48.4358 3.61226H88.3642ZM45.9033 44.1686C22.4635 44.1686 3.38844 25.1023 3.38844 1.67334C3.38844 -21.7556 22.4635 -40.822 45.9033 -40.822C50.4296 -40.822 54.7942 -40.1218 58.8894 -38.7753L42.4008 1.02701C42.1313 1.67333 42.1313 2.42735 42.4008 3.07367L58.6739 42.2835C54.6325 43.5223 50.3757 44.2225 45.9571 44.2225L45.9033 44.1686ZM65.6788 45.1919C81.6825 37.9209 92.9444 22.0862 93.6987 3.55843H223.668C224.153 3.55843 224.584 3.45068 225.015 3.23524L276.313 -25.7951L274.265 28.6032L257.723 88.4951L166.227 179.949C157.552 172.57 146.721 168.531 135.244 168.531C129.262 168.531 123.497 169.662 118.108 171.708L65.6788 45.1919V45.1919ZM174.956 231.546L137.668 216.089L166.335 187.435C177.651 199.608 180.56 216.789 174.956 231.546ZM134.597 211.565L120.156 176.663C124.898 174.886 130.017 173.863 135.244 173.863C145.32 173.863 154.804 177.364 162.455 183.719L134.597 211.565ZM165.311 246.466C157.282 254.491 146.613 258.907 135.244 258.907C123.874 258.907 113.205 254.491 105.176 246.466C97.1473 238.441 92.7288 227.776 92.7288 216.412C92.7288 205.047 97.1473 194.383 105.176 186.358C108.194 183.342 111.588 180.811 115.253 178.872L131.741 218.62C132.011 219.266 132.549 219.805 133.196 220.074L172.747 236.448C170.807 240.056 168.383 243.449 165.311 246.466ZM179.914 233.593C186.326 216.897 183.039 197.399 170.107 183.611L262.034 91.7267C262.357 91.4035 262.626 90.9727 262.734 90.5418L278.253 34.3123L315.325 74.2223L346.201 127.705V257.345C328.365 258.907 313.332 270.218 306.488 285.891L179.914 233.485V233.593ZM346.201 302.426L311.446 288.045C317.481 274.311 330.629 264.347 346.201 262.785V302.426ZM351.59 262.624C368.348 263.108 382.681 273.288 389.201 287.722L351.59 303.288V262.624ZM392.919 305.065C392.919 328.494 373.844 347.56 350.404 347.56C326.964 347.56 307.889 328.494 307.889 305.065C307.889 300.918 308.536 296.878 309.668 293.054L349.003 309.32C349.326 309.481 349.704 309.535 350.027 309.535C350.35 309.535 350.727 309.481 351.051 309.32L391.141 292.731C392.326 296.609 392.973 300.756 392.973 305.065H392.919ZM394.158 285.675C386.83 269.248 370.557 257.722 351.59 257.238V127.005C351.59 126.52 351.482 126.089 351.212 125.658L322.223 75.515L376.646 77.5616L437.374 92.6424L528.654 184.742C516.638 198.423 513.728 217.327 519.978 233.485L394.158 285.568V285.675ZM564.541 213.342L536.252 184.796C544.334 177.525 554.465 173.863 564.649 173.863C569.768 173.863 574.887 174.832 579.736 176.663L564.541 213.342ZM560.446 216.843L524.99 231.546C519.547 217.274 522.08 200.739 532.534 188.674L560.5 216.897L560.446 216.843ZM594.77 186.304C602.799 194.329 607.217 204.994 607.217 216.358C607.217 227.722 602.799 238.387 594.77 246.412C578.174 263.001 551.178 263.001 534.635 246.412C531.617 243.396 529.139 240.002 527.199 236.394L566.75 220.02C567.397 219.751 567.936 219.213 568.205 218.566L584.694 178.818C588.304 180.757 591.753 183.234 594.77 186.25V186.304ZM581.838 171.708C565.403 165.461 546.22 168.531 532.48 181.026L440.714 88.4413C440.391 88.0642 439.906 87.8488 439.475 87.7411L382.573 73.576L422.394 36.6283L475.901 4.68947H606.301C607.433 22.7325 618.587 38.0825 634.267 45.2458L581.838 171.762V171.708ZM654.043 44.1148C649.624 44.1148 645.314 43.4146 641.326 42.1758L657.599 2.96597C657.869 2.31965 657.869 1.56559 657.599 0.919271L641.111 -38.883C645.206 -40.1757 649.571 -40.9297 654.097 -40.9297C677.537 -40.9297 696.612 -21.8634 696.612 1.5656C696.612 24.9946 677.537 44.0609 654.097 44.0609L654.043 44.1148Z" fill="#61605F" fill-opacity="0.2"/>
<path d="M349.974 352.408C155.99 352.408 -1.8916 194.652 -1.8916 0.703772C-1.8916 -193.245 155.99 -351 349.974 -351C543.958 -351 701.839 -193.245 701.839 0.703772C701.839 194.652 544.012 352.408 349.974 352.408V352.408ZM349.974 -345.614C158.953 -345.614 3.49684 -190.283 3.49684 0.703772C3.49684 191.69 158.9 347.022 349.974 347.022C541.048 347.022 696.451 191.636 696.451 0.703772C696.451 -190.229 541.048 -345.614 349.974 -345.614Z" fill="black" fill-opacity="0.2"/>
<path d="M656.199 -1.98916L506.346 -64.0355L568.421 -213.819C568.852 -214.843 568.583 -215.974 567.829 -216.728C567.074 -217.482 565.889 -217.697 564.919 -217.32L415.066 -155.274L352.991 -305.058C352.183 -307.05 348.842 -307.05 348.034 -305.058L285.959 -155.274L136.107 -217.32C135.783 -217.428 135.406 -217.536 135.083 -217.536C134.706 -217.536 134.382 -217.482 134.059 -217.32C134.005 -217.32 133.951 -217.266 133.897 -217.212C133.628 -217.105 133.358 -216.943 133.197 -216.728C132.981 -216.512 132.82 -216.243 132.658 -215.92C132.658 -215.92 132.658 -215.866 132.604 -215.812C132.604 -215.812 132.604 -215.758 132.604 -215.704C132.496 -215.381 132.442 -215.112 132.442 -214.789C132.442 -214.466 132.496 -214.142 132.604 -213.873C132.604 -213.873 132.604 -213.819 132.604 -213.765L194.679 -63.9817L44.8802 -1.93533C44.5569 -1.77375 44.2336 -1.61217 44.0181 -1.34287C43.8025 -1.12743 43.6409 -0.858134 43.4792 -0.588836C43.4792 -0.588836 43.4792 -0.534953 43.4253 -0.481093C43.4253 -0.481093 43.4253 -0.427252 43.4253 -0.373392C43.3176 -0.050234 43.2637 0.219055 43.2637 0.542213C43.2637 0.865371 43.3176 1.18856 43.4253 1.45786C43.4253 1.45786 43.4253 1.5117 43.4253 1.56556C43.4253 1.56556 43.4253 1.61944 43.4792 1.6733C43.587 1.9426 43.7486 2.2119 44.0181 2.42733C44.2875 2.69663 44.5569 2.91208 44.9341 3.01979L194.733 65.0661L132.658 214.85C132.658 214.85 132.658 214.904 132.658 214.958C132.55 215.281 132.496 215.55 132.496 215.873C132.496 216.196 132.55 216.52 132.658 216.789C132.658 216.789 132.658 216.843 132.658 216.897C132.82 217.327 133.143 217.651 133.52 217.974C133.628 218.028 133.682 218.135 133.79 218.189C133.897 218.243 133.951 218.351 134.059 218.351C134.759 218.62 135.514 218.62 136.16 218.351L285.959 156.304L348.034 306.088C348.196 306.519 348.519 306.842 348.896 307.165C349.004 307.219 349.058 307.327 349.166 307.381C349.273 307.435 349.327 307.542 349.435 307.542C349.758 307.704 350.135 307.758 350.459 307.758C350.782 307.758 351.159 307.704 351.483 307.542C351.59 307.542 351.644 307.435 351.752 307.381C351.86 307.327 351.968 307.273 352.021 307.165C352.399 306.896 352.722 306.519 352.884 306.088L414.958 156.304L564.811 218.351C565.134 218.512 565.511 218.566 565.835 218.566C566.158 218.566 566.535 218.512 566.859 218.351C566.966 218.351 567.02 218.243 567.128 218.189C567.236 218.135 567.344 218.081 567.397 217.974C567.775 217.704 568.098 217.327 568.26 216.897C568.26 216.897 568.26 216.843 568.26 216.789C568.367 216.466 568.421 216.196 568.421 215.873C568.421 215.55 568.367 215.227 568.26 214.958C568.26 214.958 568.26 214.904 568.26 214.85L506.185 65.0661L656.037 3.01979C657.061 2.58892 657.708 1.61941 657.708 0.542213C657.708 -0.534981 657.061 -1.50445 656.037 -1.93533L656.199 -1.98916ZM560.931 -209.834L501.335 -66.0822L441.739 -90.7499L417.06 -150.319L560.877 -209.888L560.931 -209.834ZM437.644 87.6333L350.459 123.719L263.274 87.6333L227.171 0.488383L263.274 -86.6566L350.459 -122.743L437.644 -86.6566L473.746 0.488383L437.644 87.6333ZM476.656 7.54399L499.288 62.1038L444.703 84.7249L476.71 7.54399H476.656ZM434.734 94.6889L412.103 149.249L357.518 126.628L434.734 94.6351V94.6889ZM343.454 126.682L288.869 149.303L266.237 94.7428L343.454 126.735V126.682ZM256.269 84.7788L201.684 62.1577L224.315 7.59786L256.323 84.7788H256.269ZM224.261 -6.45952L201.63 -61.0194L256.215 -83.6405L224.208 -6.45952H224.261ZM266.184 -93.6045L288.815 -148.164L343.4 -125.543L266.184 -93.5506V-93.6045ZM357.464 -125.597L412.049 -148.218L434.68 -93.6584L357.464 -125.651V-125.597ZM444.649 -83.6943L499.234 -61.0732L476.602 -6.51339L444.595 -83.6943H444.649ZM350.459 -296.979L410.055 -153.227L350.459 -128.559L290.863 -153.227L350.459 -296.979V-296.979ZM140.094 -209.888L283.912 -150.319L259.232 -90.7499L199.636 -66.0822L140.04 -209.834L140.094 -209.888ZM52.909 0.434511L196.727 -59.1343L221.406 0.434511L196.727 60.0033L52.909 0.434511ZM140.094 210.757L199.69 67.0051L259.286 91.6728L283.965 151.242L140.148 210.81L140.094 210.757ZM350.513 297.902L290.916 154.15L350.513 129.482L410.109 154.15L350.513 297.902ZM560.931 210.757L417.114 151.188L441.793 91.6189L501.389 66.9512L560.985 210.703L560.931 210.757ZM504.299 59.9495L479.62 0.38064L504.299 -59.1882L648.116 0.38064L504.299 59.9495Z" fill="black" fill-opacity="0.2"/>
</g>
<defs>
<clipPath id="clip0_1070_367">
<rect width="351" height="351" fill="white"/>
</clipPath>
</defs>
</svg>
